HIERARCHY
ROOT Hips
{
	OFFSET 0.000000 0.000000 0.000000
	CHANNELS 6 Xposition Yposition Zposition Zrotation Yrotation Xrotation 
	JOINT LHipJoint
	{
		OFFSET 0.000000 0.000000 0.000000
		CHANNELS 3 Zrotation Yrotation Xrotation
		JOINT LeftUpLeg
		{
			OFFSET 1.363060 -1.794630 0.839290
			CHANNELS 3 Zrotation Yrotation Xrotation
			JOINT LeftLeg
			{
				OFFSET 2.448110 -6.726130 0.000000
				CHANNELS 3 Zrotation Yrotation Xrotation
				JOINT LeftFoot
				{
					OFFSET 2.562200 -7.039590 0.000000
					CHANNELS 3 Zrotation Yrotation Xrotation
					JOINT LeftToeBase
					{
						OFFSET 0.157640 -0.433110 2.322550
						CHANNELS 3 Zrotation Yrotation Xrotation
						End Site
						{
							OFFSET 0.000000 0.000000 0.000000
						}
					}
				}
			}
		}
	}
	JOINT RHipJoint
	{
		OFFSET 0.000000 0.000000 0.000000
		CHANNELS 3 Zrotation Yrotation Xrotation
		JOINT RightUpLeg
		{
			OFFSET -1.305520 -1.794630 0.839290
			CHANNELS 3 Zrotation Yrotation Xrotation
			JOINT RightLeg
			{
				OFFSET -2.542530 -6.985550 0.000000
				CHANNELS 3 Zrotation Yrotation Xrotation
				JOINT RightFoot
				{
					OFFSET -2.568260 -7.056230 0.000000
					CHANNELS 3 Zrotation Yrotation Xrotation
					JOINT RightToeBase
					{
						OFFSET -0.164730 -0.452590 2.363150
						CHANNELS 3 Zrotation Yrotation Xrotation
						End Site
						{
							OFFSET 0.000000 0.000000 0.000000
						}
					}
				}
			}
		}
	}
}
MOTION
Frames: 16
Frame Time: 0.008333
-9.261142 16.528461 -1.818270 107.636211 85.844419 131.970533 -10.775172 3.271914 -2.215950 -2.580099 7.101624 -0.767485 -2.057718 0.619938 10.941403 0.061746 -2.144846 8.033325 -0.427800 -0.000000 -84.397300 8.306940 0.843050 2.371117 14.383882 4.594727 -50.861848 3.878586 1.034811 6.878360 -0.678619 -2.768108 -1.077590 -1.227600 0.000001 -41.128900
-8.992129 16.494521 -1.780971 106.856586 85.812436 131.204535 -10.877314 3.358215 -2.160182 -2.213754 6.880498 -1.044887 -1.885879 0.812233 12.873416 0.109213 -2.424495 9.846701 -0.604300 -0.000000 -87.259800 8.221422 0.682996 2.482270 14.136034 5.581477 -51.364489 3.594348 0.641217 9.747926 -0.965493 -3.914601 -1.360754 -1.420000 -0.000000 -35.583200
-8.722493 16.465897 -1.741476 106.338350 85.798592 130.684561 -11.000716 3.428540 -2.108760 -1.785772 6.748919 -1.504444 -1.690651 1.006717 15.029718 0.175638 -2.827555 11.933986 -0.861300 0.000000 -89.638900 8.127472 0.542355 2.568144 13.886118 6.566592 -51.916598 3.290913 0.222109 12.955865 -1.234662 -4.891789 -1.853288 -1.541600 0.000000 -28.913000
-8.453460 16.442881 -1.699718 106.137749 85.799719 130.449475 -11.139868 3.475137 -2.065072 -1.301516 6.698136 -2.118280 -1.474046 1.194606 17.392704 0.268381 -3.313760 14.246107 -1.201900 -0.000000 -91.319700 8.030324 0.428542 2.614950 13.673698 7.486300 -52.443731 2.985655 -0.194946 16.332439 -1.474731 -5.671118 -2.568108 -1.576000 -0.000000 -21.640400
-8.186216 16.425682 -1.655332 106.191283 85.806814 130.431640 -11.281861 3.491983 -2.028355 -0.792150 6.689133 -2.860070 -1.242739 1.366882 19.932795 0.392197 -3.802675 16.705092 -1.604600 0.000001 -92.065900 7.941117 0.345246 2.619789 13.512346 8.297251 -52.879573 2.692032 -0.586131 19.693221 -1.680048 -6.267187 -3.446617 -1.530900 -0.000000 -14.739300
-7.921638 16.414504 -1.608443 106.536766 85.824821 130.674141 -11.419591 3.471240 -1.999462 -0.267616 6.701026 -3.722976 -1.006633 1.517127 22.631871 0.544976 -4.225406 19.199683 -2.032500 0.000000 -91.667900 7.861545 0.285923 2.588510 13.426604 8.987151 -53.166667 2.426419 -0.932322 22.874191 -1.853207 -6.712620 -4.462838 -1.419100 0.000000 -8.806400
-7.660310 16.409419 -1.559109 107.166993 85.857996 131.179621 -11.544949 3.409749 -1.977438 0.256806 6.712332 -4.704606 -0.777988 1.643054 25.467269 0.718870 -4.504778 21.597387 -2.427201 -0.000000 -89.970500 7.792287 0.241711 2.529251 13.437070 9.550552 -53.270139 2.203957 -1.223580 25.758977 -1.999173 -7.029609 -5.624730 -1.248701 0.000000 -4.010200
-7.402590 16.410426 -1.507244 108.006674 85.906196 131.884222 -11.649680 3.310827 -1.960429 0.758533 6.705472 -5.804141 -0.568609 1.747625 28.408535 0.902067 -4.564248 23.759139 -2.716400 0.000000 -86.945800 7.735202 0.205109 2.449263 13.554281 9.980855 -53.173661 2.035783 -1.457543 28.274052 -2.122554 -7.227255 -6.950879 -1.024400 0.000000 -0.206600
-7.148557 16.417404 -1.452898 109.000801 85.972132 132.742299 -11.730000 3.181039 -1.948058 1.225245 6.678984 -7.023604 -0.385906 1.838284 31.421411 1.081759 -4.350782 25.554352 -2.835300 -0.000000 -82.722700 7.689920 0.168315 2.355938 13.784491 10.280437 -52.866624 1.927815 -1.635280 30.366159 -2.228188 -7.318101 -8.431898 179.244000 -0.000000 -2.809900
-6.898112 16.430187 -1.395873 109.991828 86.052143 133.605205 -11.782212 3.031423 -1.939034 1.635701 6.630841 -8.361701 -0.232034 1.924363 34.459380 1.247668 -3.830550 26.882145 -2.737300 0.000000 -77.604000 7.659039 0.128437 2.255229 14.115404 10.451657 -52.349234 1.879085 -1.759759 32.006086 -2.318080 -7.309302 -10.024706 179.542300 0.000000 -5.194900
-6.650902 16.448670 -1.336291 110.938577 86.149291 134.442587 -11.808928 2.869011 -1.932401 1.987614 6.566083 -9.819224 -0.102799 2.013223 37.468933 1.394304 -3.008812 27.691963 -2.414300 -0.000000 -72.154000 7.639432 0.080443 2.154063 14.537630 10.512817 -51.621482 1.885295 -1.832677 33.166406 -2.394497 -7.219209 -11.651296 179.849300 0.000000 -7.035100
-6.406631 16.472626 -1.273753 111.589743 86.254120 135.010217 -11.808044 2.704230 -1.925155 2.255590 6.477005 -11.388420 0.007172 2.109804 40.395727 1.519368 -1.914118 27.966227 -1.887800 -0.000001 -66.779300 7.635287 0.027860 2.056648 15.015738 10.472950 -50.697827 1.936473 -1.856561 33.850342 -2.455124 -7.053469 -13.225094 -179.855500 0.000000 -8.379900
-6.164840 16.501884 -1.208287 111.817574 86.363649 135.189560 -11.781742 2.540670 -1.914766 2.431849 6.359017 -13.065583 0.104527 2.214640 43.190689 1.623710 -0.604641 27.727007 -1.210400 -0.000001 -61.906700 7.645467 -0.028801 1.968706 15.521710 10.355536 -49.595337 2.022047 -1.832781 34.063202 -2.498634 -6.829154 -14.653882 -179.592900 -0.000001 -9.267300
-5.925150 16.536253 -1.139843 111.470581 86.472583 134.837377 -11.731196 2.379723 -1.898922 2.507856 6.205101 -14.846448 0.194155 2.325576 45.815116 1.708996 0.850271 27.009492 -0.447500 0.000000 -57.727100 7.669869 -0.087420 1.895895 16.023011 10.186670 -48.339672 2.130171 -1.763321 33.827381 -2.523494 -6.564649 -15.860846 -179.378200 -0.000000 -9.759800
-5.687192 16.575505 -1.068543 110.404705 86.575112 133.818173 -11.657060 2.220008 -1.875493 2.476816 6.005912 -16.724883 0.278844 2.437800 48.233291 1.778373 2.386084 25.871699 0.336800 -0.000000 -54.411000 7.708292 -0.145665 1.844013 16.488061 9.997210 -46.963160 2.249097 -1.651038 33.178587 -2.529414 -6.281707 -16.793598 -179.219900 0.000000 -9.960900
-5.450721 16.619312 -0.994600 108.502333 86.666536 132.020764 -11.559798 2.058525 -1.843701 2.337952 5.755346 -18.694399 0.359078 2.546185 50.421824 1.834123 3.939878 24.361350 1.083200 0.000000 -51.816300 7.760233 -0.201643 1.818908 16.889854 9.821547 -45.500942 2.368145 -1.499995 32.164321 -2.518248 -6.004952 -17.430306 -179.118299 0.000000 -10.012600
